HIERARCHY
ROOT hip
{
	OFFSET 0.000000 0.000000 0.000000 
	CHANNELS 6 Xposition Yposition Zposition Xrotation Zrotation Yrotation
	JOINT abdomen
	{
		OFFSET 0.000000 3.402643 0.000000 
		CHANNELS 3 Xrotation Zrotation Yrotation
		JOINT chest
		{
			OFFSET 0.000000 8.438565 -0.680529 
			CHANNELS 3 Xrotation Zrotation Yrotation
			JOINT neck
			{
				OFFSET 0.000000 10.207942 -0.272212 
				CHANNELS 3 Xrotation Zrotation Yrotation
				JOINT head
				{
					OFFSET 0.000000 3.130431 0.000000 
					CHANNELS 3 Xrotation Zrotation Yrotation
					End Site
					{
						OFFSET 0.000000 3.130435 0.000000 
					}
				}
			}
			JOINT lCollar
			{
				OFFSET 3.470700 6.669187 -0.816635 
				CHANNELS 3 Yrotation Zrotation Xrotation
				JOINT lShldr
				{
					OFFSET 3.198488 0.000000 0.000000 
					CHANNELS 3 Zrotation Yrotation Xrotation
					JOINT lForeArm
					{
						OFFSET 10.139888 0.000000 0.000000 
						CHANNELS 3 Yrotation Zrotation Xrotation
						JOINT lHand
						{
							OFFSET 8.370511 0.000000 0.000000 
							CHANNELS 3 Zrotation Yrotation Xrotation
							End Site
							{
								OFFSET 4.083176 0.000000 0.000000 
							}
						}
					}
				}
			}
			JOINT rCollar
			{
				OFFSET -3.470700 6.669187 -0.816635 
				CHANNELS 3 Yrotation Zrotation Xrotation
				JOINT rShldr
				{
					OFFSET -3.198488 0.000000 0.000000 
					CHANNELS 3 Zrotation Yrotation Xrotation
					JOINT rForeArm
					{
						OFFSET -10.139888 0.000000 0.000000 
						CHANNELS 3 Yrotation Zrotation Xrotation
						JOINT rHand
						{
							OFFSET -8.370511 0.000000 0.000000 
							CHANNELS 3 Zrotation Yrotation Xrotation
							End Site
							{
								OFFSET -4.083176 0.000000 0.000000 
							}
						}
					}
				}
			}
		}
	}
	JOINT lThigh
	{
		OFFSET 5.308129 -1.633274 1.361059 
		CHANNELS 3 Xrotation Zrotation Yrotation
		JOINT lShin
		{
			OFFSET -2.041588 -20.007561 0.000000 
			CHANNELS 3 Xrotation Zrotation Yrotation
			JOINT lFoot
			{
				OFFSET 0.000000 -19.190928 -1.224953 
				CHANNELS 3 Xrotation Yrotation Zrotation
				End Site
				{
					OFFSET 0.000000 -2.449906 4.627600 
				}
			}
		}
	}
	JOINT rThigh
	{
		OFFSET -5.308129 -1.633274 1.361059 
		CHANNELS 3 Xrotation Zrotation Yrotation
		JOINT rShin
		{
			OFFSET 2.041588 -20.007561 0.000000 
			CHANNELS 3 Xrotation Zrotation Yrotation
			JOINT rFoot
			{
				OFFSET 0.000000 -19.190928 -1.224953 
				CHANNELS 3 Xrotation Yrotation Zrotation
				End Site
				{
					OFFSET 0.000000 -2.449906 4.627600 
				}
			}
		}
	}
}
MOTION
Frames: 18
Frame Time: 0.016667
0.320739 45.173378 -0.153264 2.227990 -2.049230 34.597698 -17.888800 -0.403289 -5.724380 20.703600 4.804670 -2.838480 23.827700 0.323140 -2.415020 17.086399 6.300750 -1.241710 2.000000 -2.000000 0.000000 -27.543501 -72.555801 141.643997 40.547298 -0.318736 0.088933 0.193664 -0.169797 137.160004 -2.000000 2.000000 0.000000 17.661400 49.642601 125.497002 -51.729000 0.299529 0.107339 -0.145215 0.154308 158.800995 -8.228596 -2.101063 2.685708 25.511189 2.842340 1.934747 -12.663874 6.729631 -0.107939 -23.518009 -1.129478 1.018856 29.467171 -2.587254 -2.292834 -9.588638 -11.708987 -4.150002 
0.274618 45.221722 -0.417027 2.199230 -2.420090 35.131401 -17.975500 -0.367850 -5.769260 20.537001 4.833980 -2.862970 23.911301 0.159526 -1.959280 16.932899 6.438290 -1.052740 2.000000 -2.000000 0.000000 -26.671200 -74.406303 139.078003 38.027699 -0.322542 0.084281 0.199016 -0.170089 135.246002 -2.000000 2.000000 0.000000 14.452700 52.590900 118.484001 -46.250500 0.309390 0.098764 -0.152845 0.147976 155.813004 -8.795279 -1.938658 2.314650 25.525126 2.813795 1.957622 -12.470784 6.617022 -0.176548 -23.567793 -1.036162 1.351042 28.790419 -2.571023 -2.251870 -9.661769 -12.352242 -4.363188 
0.238278 45.256783 -0.614103 2.307070 -2.605310 35.265800 -17.954800 -0.384467 -5.506670 20.478201 4.716790 -2.740800 24.545099 -0.188623 -2.077340 17.224701 6.325480 -1.132180 2.000000 -2.000000 0.000000 -29.205799 -75.117104 140.259995 39.931999 -0.319684 0.087813 0.198470 -0.170068 135.440994 -2.000000 2.000000 0.000000 14.443600 53.316898 115.399002 -47.148899 0.307829 0.100234 -0.153299 0.148165 155.636993 -9.071475 -1.966620 2.105179 25.230358 2.799970 1.920174 -12.242693 6.783893 -0.160663 -23.741858 -1.043357 1.583091 28.375071 -2.592893 -2.215135 -9.309798 -12.812685 -4.356646 
0.201937 45.291977 -0.811175 2.414970 -2.790490 35.409401 -17.933800 -0.401076 -5.244180 20.419500 4.609360 -2.618410 25.179300 -0.524372 -2.188990 17.516600 6.222250 -1.200690 2.000000 -2.000000 0.000000 -31.929199 -75.817703 141.636993 41.846100 -0.316695 0.091265 0.197923 -0.170044 135.636993 -2.000000 2.000000 0.000000 14.365200 54.042599 112.257004 -48.057098 0.306229 0.101695 -0.153754 0.148353 155.460999 -9.417933 -2.008390 1.844187 25.006969 2.783486 1.939521 -12.011877 6.919412 -0.138237 -23.935345 -1.053330 1.814137 27.892570 -2.596034 -2.175345 -8.908207 -13.257683 -4.376514 
0.176288 45.343403 -0.952495 2.610850 -2.936410 35.461498 -18.000099 -0.477461 -4.974790 20.253000 4.453060 -2.503970 25.511200 -0.647446 -2.225750 17.623501 6.181250 -1.227480 2.000000 -2.000000 0.000000 -36.566101 -74.851601 146.322998 46.963299 -0.308154 0.099984 0.200055 -0.170125 134.875000 -2.000000 2.000000 0.000000 16.804800 53.014599 115.018997 -53.340302 0.296477 0.109678 -0.154007 0.148457 155.363007 -9.614111 -2.080663 1.658326 24.535826 2.769283 1.914439 -11.678038 6.920608 -0.148745 -24.189867 -1.156441 1.881080 27.619553 -2.583539 -2.186802 -8.272045 -13.538136 -4.240440 
0.150640 45.394840 -1.093816 2.806770 -3.072490 35.513199 -18.075600 -0.557181 -4.714470 20.076799 4.296730 -2.399130 25.843201 -0.778775 -2.268130 17.740299 6.139990 -1.263140 2.000000 -2.000000 0.000000 -40.629501 -73.798401 150.423004 52.070801 -0.298887 0.107893 0.202160 -0.170177 134.123001 -2.000000 2.000000 0.000000 19.096701 51.927799 117.642998 -58.623600 0.286032 0.116729 -0.154286 0.148571 155.255997 -9.792840 -2.145532 1.451479 24.124348 2.747748 1.887161 -11.447392 6.939186 -0.164112 -24.392963 -1.263196 1.922855 27.274252 -2.586087 -2.144158 -7.626842 -13.852070 -4.124356 
0.129731 45.423851 -1.185405 2.836810 -3.326010 35.401402 -18.102301 -0.583238 -4.449740 19.979000 4.120880 -2.277730 25.838100 -0.547828 -2.250950 17.654301 6.227880 -1.261710 2.000000 -2.000000 0.000000 135.591003 -108.084999 -25.742001 58.262199 -0.286767 0.116326 0.201148 -0.170156 134.483994 -2.000000 2.000000 0.000000 21.998301 49.744202 122.530998 -65.322800 0.271929 0.124236 -0.153148 0.148102 155.695007 -9.974785 -1.971234 1.317660 23.878241 2.741359 1.860450 -11.377661 6.956665 -0.137929 -24.550005 -1.147247 1.972424 26.999638 -2.578173 -2.127538 -7.046215 -13.947449 -3.992380 
0.108822 45.452858 -1.276983 2.857110 -3.569790 35.290401 -18.138399 -0.609284 -4.185070 19.871401 3.945030 -2.156410 25.823799 -0.325370 -2.238720 17.578199 6.315530 -1.268180 2.000000 -2.000000 0.000000 132.533005 -110.035004 -22.629299 64.463402 -0.273787 0.123413 0.200109 -0.170127 134.856003 -2.000000 2.000000 0.000000 24.486700 47.433399 127.037003 -72.022003 0.257047 0.130048 -0.152039 0.157401 156.125000 -10.094312 -1.799891 1.158236 23.622847 2.740771 1.863835 -11.339532 6.987357 -0.135959 -24.805851 -1.016259 2.032345 26.921961 -2.574023 -2.137630 -6.530565 -14.032904 -3.841639 
0.086475 45.452595 -1.321166 2.857670 -3.745350 35.066799 -18.075701 -0.685663 -3.943570 19.910700 3.749760 -2.053870 25.721901 -0.266726 -2.302780 17.508699 6.289000 -1.283560 2.000000 -2.000000 0.000000 130.399994 -112.617996 -20.230700 71.055199 -0.259236 0.129361 0.194729 -0.169870 136.779007 -2.000000 2.000000 0.000000 27.276800 44.906799 131.757004 -79.180199 0.240514 0.134293 -0.147887 0.145799 157.746002 -10.229082 -1.628704 1.185031 23.671558 2.740983 1.853363 -11.411140 6.953195 -0.127207 -24.988310 -0.939101 1.940033 26.932524 -2.565313 -2.135510 -6.010709 -13.704041 -3.665833 
0.064127 45.452202 -1.365360 2.858260 -3.920910 34.843201 -18.012800 -0.771420 -3.699270 19.959801 3.544730 -1.941130 25.629200 -0.198797 -2.352580 17.439400 6.271930 -1.305320 2.000000 -2.000000 0.000000 128.729004 -115.239998 -18.300400 77.656799 -0.244075 0.133605 0.189359 -0.169432 138.703003 -2.000000 2.000000 0.000000 29.654400 42.243301 136.106995 -86.328598 0.223604 0.136444 -0.143765 0.153600 159.376999 -10.429523 -1.463846 1.197446 23.809639 2.743452 1.871659 -11.539176 6.946965 -0.133166 -25.190563 -0.868995 1.857150 26.982721 -2.560809 -2.153529 -5.504703 -13.346286 -3.471348 
0.042213 45.441631 -1.374347 2.819070 -3.911290 34.573002 -17.987400 -0.890610 -3.516720 19.920700 3.437290 -1.874000 25.538799 -0.036470 -2.395180 17.361099 6.283630 -1.311620 2.000000 -2.000000 0.000000 127.121002 -118.769997 -16.468100 84.287598 -0.228457 0.136084 0.185690 -0.169028 140.022003 -2.000000 2.000000 0.000000 32.735901 39.548401 141.332993 -93.057098 0.208078 0.117014 -0.138446 0.141082 161.516006 -10.366031 -1.413327 1.210341 23.811205 2.732541 1.879256 -11.579784 7.093277 -0.068289 -25.427286 -0.895096 1.893856 27.375687 -2.564924 -2.176861 -5.186505 -12.519211 -3.281931 
0.020299 45.431198 -1.383345 2.779920 -3.911420 34.292400 -17.961599 -1.013260 -3.343310 19.891500 3.329850 -1.806150 25.448099 0.135591 -2.424390 17.273001 6.295600 -1.319020 2.000000 -2.000000 0.000000 125.875999 -122.318001 -14.998800 90.928299 -0.212476 0.156273 0.182057 -0.168544 141.330002 -2.000000 2.000000 0.000000 35.375801 36.648499 146.171005 -99.765999 0.193314 0.115355 -0.133258 0.138147 163.645004 -10.398020 -1.383684 1.231624 23.994658 2.758845 1.871899 -11.707536 7.274994 -0.023008 -25.656284 -0.927630 1.961301 27.779707 -2.548911 -2.185679 -4.867602 -11.702481 -3.100618 
0.021127 45.410179 -1.351980 2.779500 -3.784620 33.956799 -17.965000 -1.170690 -3.179500 19.930700 3.222460 -1.753880 25.303801 0.155880 -2.454900 17.144501 6.270600 -1.339550 2.000000 -2.000000 0.000000 124.171997 -126.707001 -13.265300 96.826698 -0.197437 0.155252 0.180975 -0.168383 141.720993 -2.000000 2.000000 0.000000 38.279499 33.707199 151.820007 -104.873001 0.182262 0.112942 -0.127218 0.134397 166.184006 -10.173746 -1.470138 1.322332 23.907818 2.744106 1.870286 -11.764376 7.532023 0.066988 -25.899195 -1.031268 2.378642 28.427773 -2.562301 -2.236507 -4.416833 -11.061800 -2.902314 
0.021954 45.389172 -1.320615 2.779100 -3.657810 33.630901 -17.958500 -1.331540 -3.024870 19.969801 3.115070 -1.701760 25.160101 0.184370 -2.491120 17.016001 6.245530 -1.350200 2.000000 -2.000000 0.000000 122.814003 -131.123993 -11.893900 102.714996 -0.182607 0.152696 0.179895 -0.168215 142.110992 -2.000000 2.000000 0.000000 40.732101 30.561100 157.115005 -109.971001 0.171488 0.109562 -0.121350 0.130383 168.723007 -10.063417 -1.574153 1.432637 24.033075 2.770693 1.882970 -11.914190 7.791411 0.133236 -26.122351 -1.141999 2.798886 28.957460 -2.570246 -2.258436 -3.904266 -10.430223 -2.706411 
0.021912 45.374733 -1.249067 2.592980 -3.590080 33.431000 -17.980200 -1.503590 -2.927740 19.921000 2.939270 -1.682940 25.231501 0.276093 -2.489350 17.055300 6.244470 -1.336190 2.000000 -2.000000 0.000000 121.082001 -135.806000 -10.251500 106.709000 -0.172732 0.150102 0.179193 -0.168102 142.365005 -2.000000 2.000000 0.000000 43.272499 27.882900 162.533997 -112.431999 0.166405 0.107590 -0.116052 0.126417 171.085999 -9.880758 -1.505353 1.503198 24.207258 2.791802 1.874885 -12.075306 7.984231 0.198488 -26.043743 -1.116594 3.284313 29.259251 -2.594690 -2.259342 -3.643662 -9.632816 -2.558361 
0.021868 45.360424 -1.177541 2.406870 -3.512530 33.240799 -17.992300 -1.675640 -2.830810 19.872299 2.763480 -1.663820 25.312099 0.368032 -2.476940 17.094601 6.243400 -1.322180 2.000000 -2.000000 0.000000 -60.350700 -39.474400 171.091995 110.704002 -0.163062 0.146827 0.178464 -0.167981 142.628998 -2.000000 2.000000 0.000000 45.459900 25.009701 167.682999 -114.903000 0.161391 0.105393 179.889008 179.878006 -6.550570 -9.649739 -1.433145 1.560378 24.374100 2.797213 1.883212 -12.247841 8.179865 0.256972 -25.916943 -1.103865 3.784736 29.436398 -2.589803 -2.264900 -3.331906 -8.830222 -2.417306 
0.027604 45.352680 -1.082717 2.191460 -3.444750 33.178501 -17.966600 -1.735830 -2.657810 19.930901 2.704920 -1.582230 25.332300 0.683089 -2.619400 17.145000 6.289620 -1.383970 2.000000 -2.000000 0.000000 117.723999 -144.348007 -6.993090 112.178001 -0.159553 0.145448 0.176417 -0.157858 143.371002 -2.000000 2.000000 0.000000 47.382000 21.983700 171.255997 -115.049004 0.161097 0.105256 179.895004 179.873001 -3.923590 -9.357159 -1.331395 1.553556 24.519018 2.820131 1.885760 -12.421840 8.237284 0.276748 -25.599970 -1.119387 4.370618 29.147860 -2.629493 -2.249901 -3.561422 -8.428914 -2.459040 
0.033341 45.344955 -0.987904 1.966290 -3.367160 33.126301 -17.940800 -1.792620 -2.475480 19.999399 2.646360 -1.510080 25.362499 0.998412 -2.751180 17.185900 6.345590 -1.444560 2.000000 -2.000000 0.000000 116.030998 -148.220001 -5.318110 113.642998 -0.156103 0.143990 0.174374 -0.167239 144.113007 -2.000000 2.000000 0.000000 -130.949997 161.139999 -5.353050 -115.205002 0.160783 0.105109 179.899994 179.878006 -1.286880 -9.102764 -1.235363 1.550498 24.742813 2.844164 1.897159 -12.646694 8.293284 0.280568 -25.334442 -1.130365 4.981710 28.897848 -2.670898 -2.225177 -3.783672 -8.014120 -2.473001 
